<?xml version="1.0" standalone="no"?>
<!DOCTYPE svg PUBLIC "-//W3C//DTD SVG 20010904//EN"
 "http://www.w3.org/TR/2001/REC-SVG-20010904/DTD/svg10.dtd">
<svg version="1.0" xmlns="http://www.w3.org/2000/svg"
 width="1280.000000pt" height="469.000000pt" viewBox="0 0 1280.000000 469.000000"
 preserveAspectRatio="xMidYMid meet">

<g transform="translate(0.000000,469.000000) scale(0.100000,-0.100000)"
fill="#000000" stroke="none">
<path d="M2213 4194 c-199 -24 -402 -83 -580 -170 -792 -386 -1202 -1270 -983
-2118 135 -525 498 -967 985 -1201 168 -80 348 -136 540 -166 102 -17 416 -17
520 0 197 31 377 87 550 171 519 254 881 722 1001 1295 32 152 43 401 24 565
-39 360 -193 713 -435 995 -81 95 -93 107 -220 214 -384 325 -896 477 -1402
415z m855 -996 l2 -188 -72 0 c-131 -1 -304 -18 -344 -35 -56 -23 -101 -71
-127 -134 l-22 -56 -3 -807 -3 -808 -214 0 -215 0 0 863 c0 944 0 942 59 1062
61 124 161 206 306 251 118 36 177 42 415 40 l215 -1 3 -187z"/>
<path d="M5065 3569 c-149 -7 -306 -21 -400 -37 l-40 -7 -3 -1183 -2 -1182
140 0 140 0 0 525 0 525 218 0 217 0 26 -48 c14 -26 102 -191 196 -367 95
-176 209 -390 255 -475 l83 -155 164 -3 c143 -2 163 -1 157 13 -5 13 -370 670
-550 988 -36 65 -66 122 -66 128 0 5 12 14 27 20 49 18 149 97 214 167 69 74
138 199 158 286 17 71 15 250 -4 331 -47 204 -206 366 -425 433 -132 40 -259
51 -505 41z m324 -254 c227 -54 346 -238 319 -493 -18 -165 -109 -279 -276
-347 -82 -33 -195 -46 -372 -43 l-155 3 0 440 0 440 50 6 c108 13 369 9 434
-6z"/>
<path d="M10690 3435 l0 -115 150 0 149 0 4 -882 c3 -872 3 -884 25 -966 47
-176 127 -270 277 -323 87 -30 257 -37 360 -14 127 28 262 90 349 160 l29 23
-59 86 c-33 47 -63 86 -68 86 -5 0 -23 -11 -40 -24 -90 -68 -209 -106 -331
-106 -69 0 -90 4 -136 28 -65 33 -105 85 -127 168 -14 51 -16 184 -19 1027
l-4 967 -280 0 -279 0 0 -115z"/>
<path d="M7315 2900 c-184 -17 -348 -81 -476 -186 -120 -98 -203 -237 -249
-414 -31 -121 -39 -359 -16 -490 74 -422 337 -661 756 -686 257 -16 533 55
732 188 48 33 88 61 88 62 0 8 -102 186 -107 186 -2 0 -25 -14 -49 -31 -97
-66 -280 -135 -429 -160 -91 -16 -262 -6 -342 19 -147 46 -263 142 -321 263
-36 76 -62 186 -62 265 l0 54 661 0 662 0 -6 178 c-4 152 -8 189 -31 266 -56
186 -132 296 -269 386 -120 80 -334 119 -542 100z m250 -234 c191 -51 315
-196 340 -400 l7 -56 -531 0 c-499 0 -531 1 -531 18 0 35 30 144 51 185 93
183 248 264 514 266 55 0 123 -5 150 -13z"/>
<path d="M9220 2875 c-52 -7 -133 -23 -180 -35 -89 -22 -270 -96 -270 -110 0
-5 9 -29 20 -54 11 -25 29 -66 39 -91 l20 -44 108 38 c163 58 287 83 428 84
200 1 286 -37 342 -151 27 -54 28 -65 32 -221 l3 -164 -98 9 c-55 5 -189 9
-299 8 -180 -1 -209 -4 -296 -27 -263 -69 -394 -212 -415 -453 -18 -199 74
-382 232 -462 88 -44 158 -62 269 -69 131 -8 240 14 355 70 70 34 101 57 173
130 53 54 89 83 92 75 2 -7 10 -65 17 -128 l13 -115 228 -3 227 -2 0 110 0
110 -114 0 -114 0 -9 68 c-9 76 -10 267 -3 682 4 243 2 296 -13 360 -46 206
-183 343 -382 385 -85 18 -274 18 -405 0z m432 -939 c48 -6 91 -16 95 -20 4
-4 9 -56 10 -114 2 -100 0 -111 -27 -168 -56 -116 -208 -231 -349 -264 -70
-17 -221 -8 -284 16 -66 26 -131 96 -151 165 -56 188 54 339 279 383 87 18
312 19 427 2z"/>
</g>
</svg>
